P3
# https://iamkate.com/data/12-bit-rainbow/
12 1 15
8 1 7
10 3 5
12 6 6
14 9 4
14 13 0
9 13 5
4 13 8
2 12 11
0 11 12
0 9 12
3 6 11
6 3 9
